<svg width="131" height="26" viewBox="0 0 131 26" fill="none" xmlns="http://www.w3.org/2000/svg">
<path d="M13.925 7.1C13.925 8.11667 13.6917 9.05 13.225 9.9C12.7583 10.7333 12.0417 11.4083 11.075 11.925C10.1083 12.4417 8.90833 12.7 7.475 12.7H4.825V19H0.55V1.45H7.475C8.875 1.45 10.0583 1.69167 11.025 2.175C11.9917 2.65833 12.7167 3.325 13.2 4.175C13.6833 5.025 13.925 6 13.925 7.1ZM7.15 9.3C7.96667 9.3 8.575 9.10833 8.975 8.725C9.375 8.34167 9.575 7.8 9.575 7.1C9.575 6.4 9.375 5.85833 8.975 5.475C8.575 5.09167 7.96667 4.9 7.15 4.9H4.825V9.3H7.15ZM21.8256 19.2C20.6089 19.2 19.5256 18.9917 18.5756 18.575C17.6256 18.1583 16.8756 17.5917 16.3256 16.875C15.7756 16.1417 15.4673 15.325 15.4006 14.425H19.6256C19.6756 14.9083 19.9006 15.3 20.3006 15.6C20.7006 15.9 21.1923 16.05 21.7756 16.05C22.3089 16.05 22.7173 15.95 23.0006 15.75C23.3006 15.5333 23.4506 15.2583 23.4506 14.925C23.4506 14.525 23.2423 14.2333 22.8256 14.05C22.4089 13.85 21.7339 13.6333 20.8006 13.4C19.8006 13.1667 18.9673 12.925 18.3006 12.675C17.6339 12.4083 17.0589 12 16.5756 11.45C16.0923 10.8833 15.8506 10.125 15.8506 9.175C15.8506 8.375 16.0673 7.65 16.5006 7C16.9506 6.33333 17.6006 5.80833 18.4506 5.425C19.3173 5.04167 20.3423 4.85 21.5256 4.85C23.2756 4.85 24.6506 5.28333 25.6506 6.15C26.6673 7.01667 27.2506 8.16667 27.4006 9.6H23.4506C23.3839 9.11667 23.1673 8.73333 22.8006 8.45C22.4506 8.16667 21.9839 8.025 21.4006 8.025C20.9006 8.025 20.5173 8.125 20.2506 8.325C19.9839 8.50833 19.8506 8.76667 19.8506 9.1C19.8506 9.5 20.0589 9.8 20.4756 10C20.9089 10.2 21.5756 10.4 22.4756 10.6C23.5089 10.8667 24.3506 11.1333 25.0006 11.4C25.6506 11.65 26.2173 12.0667 26.7006 12.65C27.2006 13.2167 27.4589 13.9833 27.4756 14.95C27.4756 15.7667 27.2423 16.5 26.7756 17.15C26.3256 17.7833 25.6673 18.2833 24.8006 18.65C23.9506 19.0167 22.9589 19.2 21.8256 19.2ZM44.341 5.05L35.591 25.625H30.991L34.191 18.525L28.516 5.05H33.291L36.516 13.775L39.716 5.05H44.341ZM45.0369 12.025C45.0369 10.575 45.3286 9.30833 45.9119 8.225C46.5119 7.14167 47.3369 6.30833 48.3869 5.725C49.4536 5.14167 50.6702 4.85 52.0369 4.85C53.7869 4.85 55.2452 5.30833 56.4119 6.225C57.5952 7.14167 58.3702 8.43333 58.7369 10.1H54.1869C53.8036 9.03333 53.0619 8.5 51.9619 8.5C51.1786 8.5 50.5536 8.80833 50.0869 9.425C49.6202 10.025 49.3869 10.8917 49.3869 12.025C49.3869 13.1583 49.6202 14.0333 50.0869 14.65C50.5536 15.25 51.1786 15.55 51.9619 15.55C53.0619 15.55 53.8036 15.0167 54.1869 13.95H58.7369C58.3702 15.5833 57.5952 16.8667 56.4119 17.8C55.2286 18.7333 53.7702 19.2 52.0369 19.2C50.6702 19.2 49.4536 18.9083 48.3869 18.325C47.3369 17.7417 46.5119 16.9083 45.9119 15.825C45.3286 14.7417 45.0369 13.475 45.0369 12.025ZM69.5986 4.9C71.1986 4.9 72.482 5.43333 73.4486 6.5C74.4153 7.55 74.8986 9 74.8986 10.85V19H70.6486V11.425C70.6486 10.4917 70.407 9.76667 69.9236 9.25C69.4403 8.73333 68.7903 8.475 67.9736 8.475C67.157 8.475 66.507 8.73333 66.0236 9.25C65.5403 9.76667 65.2986 10.4917 65.2986 11.425V19H61.0236V0.5H65.2986V6.925C65.732 6.30833 66.3236 5.81667 67.0736 5.45C67.8236 5.08333 68.6653 4.9 69.5986 4.9ZM84.2193 19.2C82.8527 19.2 81.6193 18.9083 80.5193 18.325C79.436 17.7417 78.5777 16.9083 77.9443 15.825C77.3277 14.7417 77.0193 13.475 77.0193 12.025C77.0193 10.5917 77.336 9.33333 77.9693 8.25C78.6027 7.15 79.4693 6.30833 80.5693 5.725C81.6693 5.14167 82.9027 4.85 84.2693 4.85C85.636 4.85 86.8693 5.14167 87.9693 5.725C89.0693 6.30833 89.936 7.15 90.5693 8.25C91.2027 9.33333 91.5193 10.5917 91.5193 12.025C91.5193 13.4583 91.1943 14.725 90.5443 15.825C89.911 16.9083 89.036 17.7417 87.9193 18.325C86.8193 18.9083 85.586 19.2 84.2193 19.2ZM84.2193 15.5C85.036 15.5 85.7277 15.2 86.2943 14.6C86.8777 14 87.1693 13.1417 87.1693 12.025C87.1693 10.9083 86.886 10.05 86.3193 9.45C85.7693 8.85 85.086 8.55 84.2693 8.55C83.436 8.55 82.7443 8.85 82.1943 9.45C81.6443 10.0333 81.3693 10.8917 81.3693 12.025C81.3693 13.1417 81.636 14 82.1693 14.6C82.7193 15.2 83.4027 15.5 84.2193 15.5Z" fill="white"/>
<path d="M104.712 15.9H98.1623L97.1123 19H92.6373L98.9873 1.45H103.937L110.287 19H105.762L104.712 15.9ZM103.612 12.6L101.437 6.175L99.2873 12.6H103.612ZM116.495 7.375C116.995 6.60833 117.62 6.00833 118.37 5.575C119.12 5.125 119.953 4.9 120.87 4.9V9.425H119.695C118.628 9.425 117.828 9.65833 117.295 10.125C116.762 10.575 116.495 11.375 116.495 12.525V19H112.22V5.05H116.495V7.375ZM130.688 15.375V19H128.513C126.963 19 125.755 18.625 124.888 17.875C124.022 17.1083 123.588 15.8667 123.588 14.15V8.6H121.888V5.05H123.588V1.65H127.863V5.05H130.663V8.6H127.863V14.2C127.863 14.6167 127.963 14.9167 128.163 15.1C128.363 15.2833 128.697 15.375 129.163 15.375H130.688Z" fill="url(#paint0_linear_1_103)"/>
<defs>
<linearGradient id="paint0_linear_1_103" x1="112.05" y1="-9" x2="101.765" y2="44.3302" gradientUnits="userSpaceOnUse">
<stop stop-color="#B75CFF"/>
<stop offset="1" stop-color="#671AE4"/>
</linearGradient>
</defs>
</svg>
